<svg width="200" height="41" viewBox="0 0 200 41" fill="none" xmlns="http://www.w3.org/2000/svg">
<g clip-path="url(#clip0_1937_15680)">
<path d="M25.8779 9.34308V33.4472C25.8779 35.0937 26.874 36.5775 28.3872 37.2093C29.91 37.8411 31.6626 37.4869 32.8215 36.3286L48.921 20.2368C49.6872 19.471 50.1086 18.4372 50.1086 17.3555C50.1086 16.2737 49.6776 15.2399 48.921 14.4741L37.9358 3.49414C35.1105 7.04562 30.7624 9.32393 25.8779 9.33351V9.34308Z" fill="url(#paint0_linear_1937_15680)"/>
<path d="M24.2402 9.33331V33.4374C24.2402 35.084 23.2442 36.5677 21.7309 37.1995C20.2082 37.8313 18.4555 37.4771 17.2966 36.3188L1.18759 20.2271C0.43098 19.4613 0 18.4274 0 17.3457C0 16.264 0.43098 15.2301 1.18759 14.4643L12.1824 3.48438C15.0077 7.03586 19.3558 9.31417 24.2402 9.32374V9.33331Z" fill="#E72276"/>
<path d="M99.9394 13.9764C97.6696 11.1428 94.3175 9.72607 89.8928 9.72607C87.6805 9.72607 85.7171 10.0707 84.0123 10.7408C82.3076 11.4204 80.8614 12.3969 79.6738 13.6796C78.4862 14.9624 77.586 16.494 76.9634 18.2745C76.3409 20.0646 76.0344 22.0557 76.0344 24.267C76.0344 34.6726 80.8135 39.8706 90.3621 39.8706C93.4268 39.8706 96.0702 39.0761 98.2825 37.487C100.495 35.8979 102.046 33.6292 102.947 30.6712H95.1412C94.873 31.6859 94.2601 32.4709 93.3023 33.0261C92.3542 33.5909 91.2528 33.8685 90.0077 33.8685C88.1402 33.8685 86.6365 33.2271 85.4968 31.9444C84.3475 30.6616 83.725 28.9385 83.6005 26.7655H103.349C103.349 21.0602 102.209 16.7907 99.9394 13.9572V13.9764ZM83.8304 22.0079C83.9836 20.0263 84.6157 18.4851 85.7267 17.3843C86.8376 16.2738 88.1402 15.7282 89.663 15.7282C90.4004 15.7282 91.1187 15.8526 91.8179 16.1111C92.517 16.36 93.1395 16.7525 93.6854 17.279C94.2313 17.8055 94.6623 18.466 94.9975 19.2605C95.3232 20.055 95.5147 20.974 95.553 22.027H83.8495L83.8304 22.0079Z" fill="url(#paint1_linear_1937_15680)"/>
<path d="M112.601 0H105.025V39.1237H112.601V0Z" fill="url(#paint2_linear_1937_15680)"/>
<path d="M139.254 12.6649C138.306 11.7172 137.042 10.9897 135.471 10.4823C133.901 9.97497 131.985 9.72607 129.734 9.72607C127.484 9.72607 125.501 9.96539 123.911 10.4536C122.322 10.9418 121.029 11.631 120.042 12.5213C119.056 13.4116 118.337 14.4837 117.887 15.7282C117.437 16.9726 117.198 18.332 117.159 19.8062H124.208C124.4 18.5234 124.879 17.4991 125.635 16.7237C126.392 15.9483 127.647 15.5559 129.39 15.5559C130.865 15.5559 132.043 15.8143 132.914 16.3408C133.786 16.8673 134.226 17.5949 134.226 18.5234C134.226 19.5285 133.901 20.2561 133.24 20.706C132.579 21.1559 131.296 21.5101 129.399 21.7781C127.493 22.0462 125.741 22.3525 124.132 22.678C122.523 23.0035 121.134 23.5204 119.966 24.2192C118.797 24.918 117.887 25.8753 117.226 27.1006C116.566 28.3259 116.24 29.9628 116.24 32.021C116.24 34.3471 117.006 36.2425 118.539 37.6976C120.071 39.1526 122.494 39.8802 125.789 39.8802C127.733 39.8802 129.438 39.5834 130.912 38.9803C132.387 38.3773 133.575 37.5731 134.466 36.568C134.542 37.5349 134.695 38.3964 134.935 39.1335H141.984V21.0315C141.984 19.2509 141.773 17.6427 141.342 16.226C140.911 14.8092 140.222 13.6222 139.273 12.6745L139.254 12.6649ZM134.332 28.2397C134.332 29.0917 134.15 29.8958 133.776 30.6521C133.403 31.4083 132.924 32.0688 132.32 32.6336C131.717 33.1984 130.999 33.6388 130.165 33.9738C129.332 34.3088 128.422 34.4716 127.455 34.4716C125.013 34.4716 123.787 33.409 123.787 31.2743C123.787 30.0298 124.199 29.0821 125.013 28.4216C125.827 27.7611 127.321 27.2155 129.495 26.7943C130.893 26.5262 131.956 26.2678 132.703 26.038C133.441 25.8083 134.006 25.4924 134.389 25.1095L134.332 28.2493V28.2397Z" fill="url(#paint3_linear_1937_15680)"/>
<path d="M152.165 3.30273H144.713V28.9194C144.713 30.4701 144.924 31.9443 145.355 33.342C145.786 34.7396 146.466 35.9649 147.424 37.0083C148.372 38.0613 149.588 38.8941 151.063 39.5164C152.538 40.1386 154.329 40.4449 156.426 40.4449C158.524 40.4449 160.181 40.129 161.637 39.5164C163.092 38.8941 164.299 38.0517 165.247 36.9892C166.195 35.917 166.894 34.7013 167.345 33.3228C167.795 31.9443 168.015 30.4989 168.015 28.9864V20.84H160.966V28.2876C160.966 30.0777 160.602 31.4466 159.884 32.423C159.166 33.3898 158.045 33.878 156.532 33.878C155.019 33.878 153.86 33.3802 153.18 32.3943C152.5 31.4083 152.165 30.0011 152.165 28.1727V16.4078H168.005V11.0471H152.165V3.30273Z" fill="url(#paint4_linear_1937_15680)"/>
<path d="M167.89 0.315918H160.315V7.36145H167.89V0.315918Z" fill="url(#paint5_linear_1937_15680)"/>
<path d="M72.1077 9.84075C71.3702 9.91734 70.6424 10.0992 69.9241 10.396C69.2058 10.6832 68.5066 11.1044 67.8266 11.65C67.1466 12.1956 66.4954 12.9519 65.8729 13.9187V10.4821H58.7665V39.028L66.3421 31.456V24.219C66.3421 19.5954 68.6503 17.2883 73.2761 17.2883C73.9753 17.2883 74.6744 17.3458 75.3736 17.4606V9.71631H74.3871C73.6113 9.71631 72.8547 9.7546 72.1173 9.83118L72.1077 9.84075Z" fill="url(#paint6_linear_1937_15680)"/>
<path d="M198.251 19.6816C197.571 17.8149 196.603 16.2354 195.339 14.9336C194.075 13.6317 192.552 12.6265 190.771 11.9086C188.98 11.1906 186.968 10.8364 184.718 10.8364C182.467 10.8364 180.379 11.1906 178.569 11.9086C176.759 12.6265 175.217 13.6508 173.943 14.9623C172.66 16.2833 171.683 17.8724 171.003 19.7391C170.323 21.6057 169.988 23.6639 169.988 25.9135C169.988 28.1631 170.314 30.1638 170.974 32.0304C171.635 33.8971 172.593 35.4862 173.857 36.8072C175.121 38.1283 176.663 39.1526 178.493 39.8897C180.322 40.6268 182.391 41.0001 184.727 41.0001C185.187 41.0001 185.628 40.9714 186.068 40.9427L199.189 27.828C199.247 27.2058 199.285 26.5836 199.285 25.923C199.285 23.6352 198.94 21.5579 198.27 19.6912L198.251 19.6816ZM184.708 34.6438C180.082 34.6438 177.774 31.7337 177.774 25.9135C177.774 20.0933 180.082 17.2406 184.708 17.2406C189.334 17.2406 191.642 20.1315 191.642 25.9135C191.642 31.6954 189.334 34.6438 184.708 34.6438Z" fill="url(#paint7_linear_1937_15680)"/>
</g>
<defs>
<linearGradient id="paint0_linear_1937_15680" x1="34.7286" y1="0.400955" x2="34.7286" y2="73.6064" gradientUnits="userSpaceOnUse">
<stop stop-color="white"/>
<stop offset="1" stop-color="#999999"/>
</linearGradient>
<linearGradient id="paint1_linear_1937_15680" x1="86.0116" y1="6.98566" x2="86.0116" y2="71.8421" gradientUnits="userSpaceOnUse">
<stop stop-color="white"/>
<stop offset="1" stop-color="#999999"/>
</linearGradient>
<linearGradient id="paint2_linear_1937_15680" x1="107.792" y1="-3.5567" x2="107.792" y2="80.6186" gradientUnits="userSpaceOnUse">
<stop stop-color="white"/>
<stop offset="1" stop-color="#999999"/>
</linearGradient>
<linearGradient id="paint3_linear_1937_15680" x1="125.643" y1="6.98479" x2="125.643" y2="71.8618" gradientUnits="userSpaceOnUse">
<stop stop-color="white"/>
<stop offset="1" stop-color="#999999"/>
</linearGradient>
<linearGradient id="paint4_linear_1937_15680" x1="153.225" y1="-0.0738283" x2="153.225" y2="79.8382" gradientUnits="userSpaceOnUse">
<stop stop-color="white"/>
<stop offset="1" stop-color="#999999"/>
</linearGradient>
<linearGradient id="paint5_linear_1937_15680" x1="163.082" y1="-0.324585" x2="163.082" y2="14.834" gradientUnits="userSpaceOnUse">
<stop stop-color="white"/>
<stop offset="1" stop-color="#999999"/>
</linearGradient>
<linearGradient id="paint6_linear_1937_15680" x1="64.8325" y1="7.05161" x2="64.8325" y2="70.1162" gradientUnits="userSpaceOnUse">
<stop stop-color="white"/>
<stop offset="1" stop-color="#999999"/>
</linearGradient>
<linearGradient id="paint7_linear_1937_15680" x1="180.689" y1="8.09427" x2="180.689" y2="72.9919" gradientUnits="userSpaceOnUse">
<stop stop-color="white"/>
<stop offset="1" stop-color="#999999"/>
</linearGradient>
<clipPath id="clip0_1937_15680">
<rect width="200" height="41" fill="white"/>
</clipPath>
</defs>
</svg>
