<svg width="50" height="48" viewBox="0 0 50 48" fill="none" xmlns="http://www.w3.org/2000/svg">
<path d="M29.1934 26.3809L36.0072 30.1609" stroke="white" stroke-width="0.5" stroke-miterlimit="10"/>
<path d="M36.0072 17.9609L29.1934 21.7409" stroke="white" stroke-width="0.5" stroke-miterlimit="10"/>
<path d="M25.0039 14.1406V19.4006" stroke="white" stroke-width="0.5" stroke-miterlimit="10"/>
<path d="M25.0039 28.7207V33.6807" stroke="white" stroke-width="0.5" stroke-miterlimit="10"/>
<path d="M36.0284 17.9598V14.6398L29.2145 10.8598V11.9998L25.0054 14.3198L20.7962 11.9998V10.8398L13.9824 14.6198V17.9598L10.9609 19.6398V28.5198L13.9824 30.1798V33.4798L20.7962 37.2598V35.9998L25.0054 33.6798L29.2145 35.9998V37.2198L36.0284 33.4598V30.1798L38.9873 28.5398V19.5998L36.0284 17.9598Z" stroke="white" stroke-width="0.5" stroke-miterlimit="10"/>
<path d="M20.795 26.3809L14.002 30.1609" stroke="white" stroke-width="0.5" stroke-miterlimit="10"/>
<path d="M13.6055 17.7402L20.7944 21.7202" stroke="white" stroke-width="0.5" stroke-miterlimit="10"/>
<path d="M29.2132 35.9997L25.0041 33.6797L20.7949 35.9997V40.6797L25.0041 42.9997L29.2132 40.6797V35.9997Z" stroke="white" stroke-width="0.5" stroke-miterlimit="10"/>
<path d="M29.2132 36L25.0041 38.34L20.7949 36" stroke="white" stroke-width="0.5" stroke-miterlimit="10"/>
<path d="M25.0039 42.9998V38.3398" stroke="white" stroke-width="0.5" stroke-miterlimit="10"/>
<path d="M13.9815 13.3005L9.79315 10.9805L5.58398 13.3005V17.9605L9.79315 20.3005L13.9815 17.9605V13.3005Z" stroke="white" stroke-width="0.5" stroke-miterlimit="10"/>
<path d="M13.9815 13.3008L9.79315 15.6408L5.58398 13.3008" stroke="white" stroke-width="0.5" stroke-miterlimit="10"/>
<path d="M9.79297 20.3006V15.6406" stroke="white" stroke-width="0.5" stroke-miterlimit="10"/>
<path d="M36.0273 13.3005L40.2157 10.9805L44.4248 13.3005V17.9605L40.2157 20.3005L36.0273 17.9605V13.3005Z" stroke="white" stroke-width="0.5" stroke-miterlimit="10"/>
<path d="M36.0273 13.3008L40.2157 15.6408L44.4248 13.3008" stroke="white" stroke-width="0.5" stroke-miterlimit="10"/>
<path d="M40.2148 20.3006V15.6406" stroke="white" stroke-width="0.5" stroke-miterlimit="10"/>
<path d="M13.9815 30.1794L9.79315 27.8594L5.58398 30.1794V34.8394L9.79315 37.1794L13.9815 34.8394V30.1794Z" stroke="white" stroke-width="0.5" stroke-miterlimit="10"/>
<path d="M13.9815 30.1797L9.79315 32.5197L5.58398 30.1797" stroke="white" stroke-width="0.5" stroke-miterlimit="10"/>
<path d="M9.79297 37.1795V32.5195" stroke="white" stroke-width="0.5" stroke-miterlimit="10"/>
<path d="M36.0273 30.1794L40.2157 27.8594L44.4248 30.1794V34.8394L40.2157 37.1794L36.0273 34.8394V30.1794Z" stroke="white" stroke-width="0.5" stroke-miterlimit="10"/>
<path d="M36.0273 30.1797L40.2157 32.5197L44.4248 30.1797" stroke="white" stroke-width="0.5" stroke-miterlimit="10"/>
<path d="M40.2148 37.1795V32.5195" stroke="white" stroke-width="0.5" stroke-miterlimit="10"/>
<path d="M29.2132 7.34L25.0041 5L20.7949 7.34V12L25.0041 14.32L29.2132 12V7.34Z" stroke="white" stroke-width="0.5" stroke-miterlimit="10"/>
<path d="M29.2132 7.33984L25.0041 9.65984L20.7949 7.33984" stroke="white" stroke-width="0.5" stroke-miterlimit="10"/>
<path d="M25.0039 14.3202V9.66016" stroke="white" stroke-width="0.5" stroke-miterlimit="10"/>
<path d="M29.2132 21.7404L25.0041 19.4004L20.7949 21.7404V26.4004L25.0041 28.7204L29.2132 26.4004V21.7404Z" stroke="white" stroke-width="0.5" stroke-miterlimit="10"/>
<path d="M29.2132 21.7402L25.0041 24.0602L20.7949 21.7402" stroke="white" stroke-width="0.5" stroke-miterlimit="10"/>
<path d="M25.0039 28.7205V24.0605" stroke="white" stroke-width="0.5" stroke-miterlimit="10"/>
</svg>
