<svg width="70" height="94" viewBox="0 0 70 94" fill="none" xmlns="http://www.w3.org/2000/svg">
<path d="M68.8246 52.1295C70.0754 62.6174 67.2911 72.6635 61.071 80.5693C54.92 88.3953 45.3321 94.08 34.5583 93.9992C23.7845 94.08 14.1977 88.3943 8.0456 80.5693C1.82658 72.6635 -0.957746 62.6174 0.293073 52.1295C1.55239 41.6346 6.34419 31.7917 12.5048 24.0901C18.7249 16.4683 26.3127 10.9858 34.5583 11.0596C42.805 10.9858 50.3917 16.4673 56.6129 24.0891C62.7724 31.7907 67.5653 41.6336 68.8246 52.1285V52.1295Z" fill="#225CA6"/>
<path d="M60.2706 29.4403C59.2738 27.8872 58.2248 26.3935 57.1323 24.97C50.7632 16.8336 42.9936 10.9808 34.5504 11.0596C26.1061 10.9808 18.3376 16.8325 11.9674 24.9689C8.26872 29.791 5.05315 35.3988 2.76471 41.4706C3.52208 41.1533 4.30122 40.8144 5.10429 40.454C30.5241 29.0237 48.0884 29.546 60.2706 29.4403Z" fill="#1E4D89"/>
<path d="M49.3581 39.1234C49.4563 38.8696 49.4779 38.6276 49.4128 38.4028C49.0035 36.9906 45.3505 36.8081 41.254 37.9953C37.1574 39.1824 34.4182 41.1173 34.5456 42.5238C35.3985 42.2502 36.2701 41.9838 37.1608 41.7257C41.6373 40.4284 45.8634 39.5504 49.3583 39.1239L49.3581 39.1234Z" fill="black"/>
<path d="M47.2513 24.0202C43.5493 22.5357 37.5232 22.8047 36.0086 23.4312C35.3919 23.625 35.2345 24.5259 35.6492 25.4366C36.0643 26.3483 36.8538 26.86 37.4212 26.585C39.0797 25.7357 43.991 25.2574 46.5832 26.1819C46.9202 26.2998 47.2555 26.2597 47.5273 26.1139C47.7777 25.9788 47.9749 25.7559 48.0665 25.4769C48.257 24.8955 47.9131 24.2769 47.2508 24.0192L47.2513 24.0202Z" fill="black"/>
<path d="M18.9939 25.3622C22.3097 24.2853 27.5225 24.8821 28.7943 25.5211C29.3163 25.7276 29.3909 26.5253 28.9683 27.2973C28.5451 28.0702 27.8246 28.4705 27.3509 28.1958C25.9696 27.3532 21.739 26.6402 19.425 27.2937C19.1244 27.3767 18.836 27.3214 18.6101 27.1776C18.402 27.0443 18.2462 26.8375 18.1859 26.5879C18.0605 26.0677 18.4017 25.5471 18.9943 25.3613L18.9939 25.3622Z" fill="black"/>
<path d="M17.8403 51.9816C19.7712 51.9816 23.4911 56.6318 31.2884 56.6318C39.0856 56.6318 42.9485 52.053 44.9519 52.053C46.9554 52.053 41.6609 66.0025 32.3616 66.0025C20.3441 66.0025 15.5509 51.9816 17.8403 51.9816Z" fill="black"/>
<path d="M31.2881 58.8647C35.7845 58.8647 39.6626 56.7529 41.457 53.7023C39.1666 55.0148 35.9221 56.6317 31.2881 56.6317C26.6542 56.6317 23.2667 54.887 21.0239 53.5344C22.7729 56.675 26.7105 58.8647 31.2881 58.8647Z" fill="white"/>
<path d="M41.2922 61.205C38.8848 60.1318 36.0626 59.5698 32.7196 62.0129C30.7887 60.4675 26.1352 59.9087 23.4495 62.9399C25.7649 64.7246 28.7332 66.0025 32.3611 66.0025C35.989 66.0025 39.0722 63.8322 41.2922 61.205Z" fill="#E48369"/>
<path d="M56.1633 23.1751C55.7878 21.3306 54.1631 16.2196 52.1684 11.8328C43.8727 -5.23896 20.6145 -2.77482 13.1703 12.4249C23.4817 10.2469 43.3315 8.78208 56.1633 23.1751Z" fill="white"/>
<path d="M56.2906 23.7892C56.2906 23.67 56.2619 23.4724 56.2089 23.2076C43.3765 8.77663 23.5278 10.2454 13.2169 12.4293C9.68601 13.1775 7.27395 14.0085 6.64442 14.3131C4.09099 15.5523 -4.37112 19.4158 10.3652 27.507C15.9956 23.2462 21.6558 20.9928 27.0476 20.0195C39.8965 17.6976 51.229 22.6404 57.0294 25.0019C56.8251 24.5175 56.5788 24.0937 56.2906 23.7892Z" fill="#E1E1E1"/>
<path d="M21.8412 48.6588C26.88 48.6588 30.9647 44.5741 30.9647 39.5353C30.9647 34.4965 26.88 30.4117 21.8412 30.4117C16.8024 30.4117 12.7177 34.4965 12.7177 39.5353C12.7177 44.5741 16.8024 48.6588 21.8412 48.6588Z" fill="white"/>
<path d="M24.5752 46.9867C21.6213 46.9867 19.2267 44.5921 19.2267 41.6383C19.2267 38.6844 21.6213 36.2898 24.5752 36.2898C27.5291 36.2898 29.9236 38.6844 29.9236 41.6383C29.9236 44.5921 27.5291 46.9867 24.5752 46.9867Z" fill="#92D5FF"/>
<path d="M19.4018 42.9981C19.2876 42.5633 19.2266 42.1085 19.2266 41.6383C19.2266 38.6845 21.6213 36.2898 24.575 36.2898C27.5288 36.2898 29.7238 38.4915 29.9102 41.2767C29.2901 41.2256 28.659 41.199 28.0168 41.199C24.7891 41.199 21.8087 41.8679 19.4018 42.9992V42.9981Z" fill="#225CA6"/>
<path d="M24.575 45.1887C22.6142 45.1887 21.0246 43.5991 21.0246 41.6382C21.0246 39.6774 22.6142 38.0878 24.575 38.0878C26.5359 38.0878 28.1255 39.6774 28.1255 41.6382C28.1255 43.5991 26.5359 45.1887 24.575 45.1887Z" fill="#220F21"/>
<path d="M25.8773 39.3703C26.3158 38.9787 27.0021 39.0317 27.41 39.4887C27.818 39.9457 27.7932 40.6335 27.3547 41.0251C26.9162 41.4166 26.2299 41.3636 25.8219 40.9066C25.4139 40.4497 25.4387 39.7618 25.8773 39.3703Z" fill="white"/>
</svg>
