<svg width="35" height="29" viewBox="0 0 35 29" fill="none" xmlns="http://www.w3.org/2000/svg">
<path d="M34.0007 13.9995C34.0007 13.8161 33.9007 13.6328 33.8507 13.4495C33.7735 13.126 33.6732 12.8086 33.5507 12.4995C33.4673 12.2995 33.3507 12.0995 33.2507 11.8828C33.1507 11.6661 33.0007 11.3828 32.8507 11.1495C32.7007 10.9161 32.5007 10.7995 32.5007 10.6661C32.5007 10.5328 32.1673 10.2495 31.984 10.0495C31.8007 9.84948 31.634 9.71615 31.4507 9.54948L30.834 8.99948L30.234 8.59948C29.9984 8.45534 29.7534 8.32727 29.5007 8.21615L28.8507 7.91615C28.5784 7.81532 28.3001 7.73182 28.0173 7.66615C27.7933 7.60025 27.565 7.55013 27.334 7.51615L26.9507 7.33281C26.2706 5.3679 24.9949 3.66384 23.3012 2.45775C21.6075 1.25166 19.5799 0.603516 17.5007 0.603516C15.4214 0.603516 13.3938 1.25166 11.7001 2.45775C10.0064 3.66384 8.73072 5.3679 8.05065 7.33281L7.75065 7.41615C7.51965 7.45013 7.29131 7.50025 7.06732 7.56615C6.78455 7.63182 6.50621 7.71532 6.23398 7.81615L5.58398 8.11615C5.33119 8.22727 5.08619 8.35534 4.85065 8.49948L4.25065 8.99948L3.63398 9.51615C3.45065 9.68281 3.26732 9.83281 3.10065 10.0161C2.93398 10.1995 2.75065 10.4328 2.58398 10.6328C2.41732 10.8328 2.28398 11.0161 2.15065 11.2328C2.01732 11.4495 1.88398 11.7161 1.75065 11.9661C1.61732 12.2161 1.53398 12.3828 1.45065 12.5828C1.32805 12.8919 1.2278 13.2094 1.15065 13.5328C1.15065 13.7161 1.03398 13.8995 1.00065 14.0828C0.896912 14.6044 0.841124 15.1344 0.833984 15.6661C0.841798 16.175 0.891971 16.6823 0.983984 17.1828C0.983984 17.3495 1.06732 17.4995 1.10065 17.6661C1.18303 17.9936 1.28318 18.3163 1.40065 18.6328L1.60065 19.1161C1.74736 19.4375 1.91437 19.7493 2.10065 20.0495L2.33398 20.4161C2.35796 20.4629 2.38584 20.5075 2.41732 20.5495L2.50065 20.6661C3.27688 21.7011 4.28341 22.5411 5.44054 23.1197C6.59767 23.6983 7.87361 23.9995 9.16732 23.9995H14.1673V21.7161C13.6609 22.0099 13.0861 22.1651 12.5007 22.1661C11.5977 22.1577 10.7349 21.7922 10.1007 21.1495C9.79614 20.8345 9.55671 20.4625 9.39608 20.0549C9.23544 19.6472 9.15674 19.2119 9.16448 18.7739C9.17222 18.3358 9.26625 17.9036 9.44118 17.5019C9.61612 17.1002 9.86853 16.7369 10.184 16.4328L15.184 11.5995C15.8061 10.9999 16.6367 10.6653 17.5007 10.6661C18.3833 10.6699 19.2284 11.0235 19.8507 11.6495L24.8507 16.6495C25.4715 17.274 25.82 18.1189 25.82 18.9995C25.82 19.8801 25.4715 20.7249 24.8507 21.3495C24.2284 21.9755 23.3833 22.3291 22.5007 22.3328C21.9144 22.3383 21.3378 22.1827 20.834 21.8828V23.9995H25.834C27.1277 23.9995 28.4036 23.6983 29.5608 23.1197C30.7179 22.5411 31.7244 21.7011 32.5007 20.6661L32.584 20.5828C32.6155 20.5408 32.6433 20.4962 32.6673 20.4495L32.9007 20.0828C33.0869 19.7826 33.2539 19.4709 33.4007 19.1495L33.6007 18.6661C33.7181 18.3496 33.8183 18.0269 33.9007 17.6995C33.9007 17.5328 33.984 17.3828 34.0173 17.2161C34.1112 16.7047 34.1614 16.1861 34.1673 15.6661C34.1654 15.1065 34.1096 14.5484 34.0007 13.9995Z" fill="#919EAB"/>
<path d="M18.684 12.8161C18.3724 12.5108 17.9536 12.3397 17.5173 12.3397C17.0811 12.3397 16.6622 12.5108 16.3507 12.8161L11.3507 17.6495C11.1738 17.7954 11.029 17.9763 10.9252 18.1807C10.8214 18.3852 10.761 18.6088 10.7476 18.8377C10.7342 19.0666 10.7682 19.2958 10.8474 19.511C10.9267 19.7261 11.0495 19.9226 11.2081 20.0882C11.3667 20.2537 11.5578 20.3847 11.7694 20.4731C11.981 20.5614 12.2086 20.6051 12.4378 20.6015C12.6671 20.5978 12.8931 20.5469 13.1018 20.452C13.3105 20.357 13.4973 20.22 13.6507 20.0495L15.834 17.9328V27.3328C15.834 27.7748 16.0096 28.1988 16.3221 28.5113C16.6347 28.8239 17.0586 28.9995 17.5007 28.9995C17.9427 28.9995 18.3666 28.8239 18.6792 28.5113C18.9917 28.1988 19.1673 27.7748 19.1673 27.3328V18.0161L21.3173 20.1828C21.4723 20.339 21.6566 20.463 21.8597 20.5476C22.0628 20.6322 22.2806 20.6758 22.5007 20.6758C22.7207 20.6758 22.9385 20.6322 23.1416 20.5476C23.3447 20.463 23.529 20.339 23.684 20.1828C23.8402 20.0279 23.9642 19.8435 24.0488 19.6404C24.1334 19.4373 24.177 19.2195 24.177 18.9995C24.177 18.7795 24.1334 18.5616 24.0488 18.3585C23.9642 18.1554 23.8402 17.9711 23.684 17.8161L18.684 12.8161Z" fill="#919EAB"/>
</svg>
