<svg width="174" height="33" viewBox="0 0 174 33" fill="none" xmlns="http://www.w3.org/2000/svg">
<g clip-path="url(#clip0_1522_9644)">
<path d="M29.0371 7.52018V26.9211C29.0371 28.2463 29.8468 29.4406 31.077 29.9491C32.3149 30.4576 33.7398 30.1725 34.6818 29.2402L47.7698 16.2883C48.3927 15.6719 48.7353 14.8398 48.7353 13.9692C48.7353 13.0985 48.3849 12.2664 47.7698 11.65L38.8395 2.8125C36.5427 5.67101 33.0079 7.50477 29.0371 7.51248V7.52018Z" fill="url(#paint0_linear_1522_9644)"/>
<path d="M27.706 7.51237V26.9133C27.706 28.2385 26.8962 29.4328 25.6661 29.9413C24.4281 30.4498 23.0033 30.1647 22.0612 29.2324L8.96544 16.2805C8.35036 15.6641 8 14.832 8 13.9614C8 13.0907 8.35036 12.2586 8.96544 11.6422L17.9036 2.80469C20.2004 5.6632 23.7352 7.49696 27.706 7.50466V7.51237Z" fill="#E72276"/>
<path d="M89.244 11.2491C87.3988 8.96845 84.6737 7.82812 81.0767 7.82812C79.2781 7.82812 77.682 8.1055 76.2962 8.64484C74.9103 9.19189 73.7346 9.97779 72.7692 11.0102C71.8037 12.0427 71.0719 13.2755 70.5658 14.7086C70.0597 16.1494 69.8105 17.752 69.8105 19.5318C69.8105 27.907 73.6957 32.0908 81.4582 32.0908C83.9496 32.0908 86.0985 31.4513 87.8971 30.1723C89.6956 28.8933 90.9569 27.0672 91.6888 24.6864H85.3433C85.1253 25.5031 84.627 26.1349 83.8484 26.5818C83.0776 27.0364 82.1823 27.2598 81.1701 27.2598C79.6519 27.2598 78.4295 26.7436 77.503 25.7111C76.5687 24.6787 76.0626 23.2918 75.9614 21.5428H92.0158C92.0158 16.9507 91.0892 13.5143 89.244 11.2337V11.2491ZM76.1482 17.7135C76.2728 16.1186 76.7867 14.8781 77.6898 13.992C78.593 13.0983 79.6519 12.6591 80.8898 12.6591C81.4893 12.6591 82.0732 12.7592 82.6416 12.9673C83.21 13.1676 83.7161 13.4835 84.1599 13.9073C84.6036 14.331 84.954 14.8627 85.2265 15.5022C85.4912 16.1417 85.6469 16.8814 85.6781 17.7289H76.1638L76.1482 17.7135Z" fill="url(#paint1_linear_1522_9644)"/>
<path d="M99.5375 0H93.3789V31.4898H99.5375V0Z" fill="url(#paint2_linear_1522_9644)"/>
<path d="M121.205 10.1935C120.435 9.43074 119.407 8.84517 118.13 8.43681C116.853 8.02845 115.296 7.82812 113.466 7.82812C111.637 7.82812 110.025 8.02075 108.733 8.4137C107.44 8.80664 106.389 9.3614 105.587 10.078C104.785 10.7945 104.201 11.6575 103.835 12.6591C103.469 13.6607 103.275 14.7548 103.244 15.9414H108.974C109.13 14.9089 109.519 14.0845 110.134 13.4604C110.749 12.8363 111.769 12.5204 113.186 12.5204C114.385 12.5204 115.343 12.7284 116.051 13.1522C116.76 13.576 117.118 14.1615 117.118 14.9089C117.118 15.7179 116.853 16.3035 116.316 16.6656C115.779 17.0278 114.735 17.3128 113.194 17.5286C111.644 17.7443 110.22 17.9909 108.912 18.2528C107.604 18.5148 106.475 18.9309 105.525 19.4933C104.575 20.0558 103.835 20.8263 103.298 21.8125C102.761 22.7987 102.496 24.1162 102.496 25.7728C102.496 27.6451 103.119 29.1706 104.365 30.3418C105.61 31.5129 107.58 32.0985 110.259 32.0985C111.839 32.0985 113.225 31.8596 114.424 31.3742C115.623 30.8888 116.588 30.2416 117.313 29.4326C117.375 30.2108 117.499 30.9042 117.694 31.4975H123.424V16.9276C123.424 15.4945 123.253 14.2001 122.903 13.0597C122.552 11.9194 121.992 10.964 121.221 10.2012L121.205 10.1935ZM117.204 22.7294C117.204 23.4151 117.056 24.0623 116.752 24.671C116.448 25.2797 116.059 25.8113 115.569 26.2659C115.078 26.7205 114.494 27.0749 113.817 27.3446C113.139 27.6143 112.4 27.7452 111.613 27.7452C109.628 27.7452 108.631 26.89 108.631 25.1718C108.631 24.1702 108.966 23.4074 109.628 22.8758C110.29 22.3441 111.504 21.9049 113.272 21.5659C114.408 21.3502 115.273 21.1422 115.88 20.9572C116.479 20.7723 116.939 20.5181 117.25 20.2099L117.204 22.7371V22.7294Z" fill="url(#paint3_linear_1522_9644)"/>
<path d="M131.702 2.6582H125.645V23.2765C125.645 24.5247 125.816 25.7112 126.166 26.8361C126.517 27.961 127.069 28.9473 127.848 29.7871C128.619 30.6346 129.608 31.3049 130.807 31.8058C132.006 32.3066 133.462 32.5531 135.167 32.5531C136.872 32.5531 138.219 32.2989 139.402 31.8058C140.586 31.3049 141.567 30.6269 142.337 29.7717C143.108 28.9087 143.677 27.9302 144.042 26.8207C144.408 25.7112 144.587 24.5478 144.587 23.3304V16.7735H138.857V22.7679C138.857 24.2087 138.561 25.3105 137.977 26.0964C137.393 26.8746 136.482 27.2676 135.252 27.2676C134.022 27.2676 133.08 26.8669 132.527 26.0733C131.974 25.2797 131.702 24.1471 131.702 22.6755V13.2062H144.58V8.89145H131.702V2.6582Z" fill="url(#paint4_linear_1522_9644)"/>
<path d="M144.485 0.254395H138.326V5.92519H144.485V0.254395Z" fill="url(#paint5_linear_1522_9644)"/>
<path d="M66.6191 7.92048C66.0196 7.98212 65.4279 8.12851 64.8439 8.36736C64.26 8.59851 63.6916 8.93752 63.1388 9.3767C62.586 9.81588 62.0566 10.4246 61.5505 11.2028V8.4367H55.7734V31.4127L61.932 25.3181V19.4932C61.932 15.7717 63.8084 13.9149 67.569 13.9149C68.1374 13.9149 68.7057 13.9611 69.2741 14.0536V7.82031H68.4721C67.8415 7.82031 67.2264 7.85113 66.6269 7.91277L66.6191 7.92048Z" fill="url(#paint6_linear_1522_9644)"/>
<path d="M169.165 15.841C168.613 14.3385 167.826 13.0672 166.799 12.0194C165.771 10.9715 164.533 10.1625 163.085 9.58463C161.629 9.00676 159.994 8.72168 158.164 8.72168C156.334 8.72168 154.637 9.00676 153.166 9.58463C151.694 10.1625 150.441 10.9869 149.405 12.0425C148.362 13.1058 147.568 14.3848 147.015 15.8872C146.462 17.3897 146.189 19.0462 146.189 20.8569C146.189 22.6675 146.454 24.2778 146.991 25.7803C147.529 27.2827 148.307 28.5617 149.335 29.625C150.363 30.6883 151.616 31.5127 153.103 32.106C154.59 32.6993 156.272 32.9998 158.172 32.9998C158.546 32.9998 158.904 32.9766 159.262 32.9535L169.928 22.3978C169.975 21.897 170.006 21.3962 170.006 20.8646C170.006 19.0231 169.726 17.3511 169.181 15.8487L169.165 15.841ZM158.156 27.8837C154.396 27.8837 152.519 25.5414 152.519 20.8569C152.519 16.1723 154.396 13.8762 158.156 13.8762C161.917 13.8762 163.793 16.2031 163.793 20.8569C163.793 25.5106 161.917 27.8837 158.156 27.8837Z" fill="url(#paint7_linear_1522_9644)"/>
</g>
<defs>
<linearGradient id="paint0_linear_1522_9644" x1="36.2322" y1="0.322862" x2="36.2322" y2="59.2443" gradientUnits="userSpaceOnUse">
<stop stop-color="white"/>
<stop offset="1" stop-color="#999999"/>
</linearGradient>
<linearGradient id="paint1_linear_1522_9644" x1="77.9214" y1="5.62243" x2="77.9214" y2="57.8239" gradientUnits="userSpaceOnUse">
<stop stop-color="white"/>
<stop offset="1" stop-color="#999999"/>
</linearGradient>
<linearGradient id="paint2_linear_1522_9644" x1="95.6284" y1="-2.86271" x2="95.6284" y2="64.8882" gradientUnits="userSpaceOnUse">
<stop stop-color="white"/>
<stop offset="1" stop-color="#999999"/>
</linearGradient>
<linearGradient id="paint3_linear_1522_9644" x1="110.141" y1="5.62173" x2="110.141" y2="57.8398" gradientUnits="userSpaceOnUse">
<stop stop-color="white"/>
<stop offset="1" stop-color="#999999"/>
</linearGradient>
<linearGradient id="paint4_linear_1522_9644" x1="132.564" y1="-0.0595179" x2="132.564" y2="64.2599" gradientUnits="userSpaceOnUse">
<stop stop-color="white"/>
<stop offset="1" stop-color="#999999"/>
</linearGradient>
<linearGradient id="paint5_linear_1522_9644" x1="140.576" y1="-0.261132" x2="140.576" y2="11.9397" gradientUnits="userSpaceOnUse">
<stop stop-color="white"/>
<stop offset="1" stop-color="#999999"/>
</linearGradient>
<linearGradient id="paint6_linear_1522_9644" x1="60.7048" y1="5.67555" x2="60.7048" y2="56.4348" gradientUnits="userSpaceOnUse">
<stop stop-color="white"/>
<stop offset="1" stop-color="#999999"/>
</linearGradient>
<linearGradient id="paint7_linear_1522_9644" x1="154.889" y1="6.51458" x2="154.889" y2="58.7492" gradientUnits="userSpaceOnUse">
<stop stop-color="white"/>
<stop offset="1" stop-color="#999999"/>
</linearGradient>
<clipPath id="clip0_1522_9644">
<rect width="162" height="33" fill="white" transform="translate(8)"/>
</clipPath>
</defs>
</svg>
