<svg width="25" height="24" viewBox="0 0 25 24" fill="none" xmlns="http://www.w3.org/2000/svg">
<path d="M13.5 2.04999V5.07999C16.89 5.56999 19.5 8.46999 19.5 12C19.5 12.9 19.32 13.75 19.02 14.54L21.62 16.07C22.18 14.83 22.5 13.45 22.5 12C22.5 6.81999 18.55 2.54999 13.5 2.04999ZM12.5 19C8.63 19 5.5 15.87 5.5 12C5.5 8.46999 8.11 5.56999 11.5 5.07999V2.04999C6.44 2.54999 2.5 6.80999 2.5 12C2.5 17.52 6.97 22 12.49 22C15.8 22 18.73 20.39 20.55 17.91L17.95 16.38C16.67 17.98 14.71 19 12.5 19Z" fill="#57C700"/>
</svg>
