<svg width="115" height="33" viewBox="0 0 115 33" fill="none" xmlns="http://www.w3.org/2000/svg">
<path d="M34.246 11.2491C32.4007 8.96845 29.6757 7.82812 26.0786 7.82812C24.2801 7.82812 22.684 8.1055 21.2981 8.64484C19.9122 9.19189 18.7366 9.97779 17.7711 11.0102C16.8057 12.0427 16.0738 13.2755 15.5677 14.7086C15.0616 16.1494 14.8125 17.752 14.8125 19.5318C14.8125 27.907 18.6976 32.0908 26.4601 32.0908C28.9516 32.0908 31.1005 31.4513 32.899 30.1723C34.6975 28.8933 35.9588 27.0672 36.6907 24.6864H30.3453C30.1272 25.5031 29.629 26.1349 28.8504 26.5818C28.0796 27.0364 27.1842 27.2598 26.172 27.2598C24.6538 27.2598 23.4314 26.7436 22.5049 25.7111C21.5706 24.6787 21.0645 23.2918 20.9633 21.5428H37.0177C37.0177 16.9507 36.0912 13.5143 34.246 11.2337V11.2491ZM21.1502 17.7135C21.2747 16.1186 21.7886 14.8781 22.6918 13.992C23.5949 13.0983 24.6538 12.6591 25.8918 12.6591C26.4913 12.6591 27.0752 12.7592 27.6436 12.9673C28.2119 13.1676 28.718 13.4835 29.1618 13.9073C29.6056 14.331 29.956 14.8627 30.2285 15.5022C30.4932 16.1417 30.6489 16.8814 30.68 17.7289H21.1657L21.1502 17.7135Z" fill="url(#paint0_linear_6877_123195)"/>
<path d="M44.5375 0H38.3789V31.4898H44.5375V0Z" fill="url(#paint1_linear_6877_123195)"/>
<path d="M66.2055 10.1935C65.4347 9.43074 64.4069 8.84517 63.1301 8.43681C61.8532 8.02845 60.296 7.82812 58.4663 7.82812C56.6367 7.82812 55.025 8.02075 53.7326 8.4137C52.4401 8.80664 51.389 9.3614 50.5871 10.078C49.7851 10.7945 49.2012 11.6575 48.8353 12.6591C48.4693 13.6607 48.2747 14.7548 48.2435 15.9414H53.9739C54.1296 14.9089 54.5189 14.0845 55.134 13.4604C55.7491 12.8363 56.769 12.5204 58.1861 12.5204C59.3851 12.5204 60.3427 12.7284 61.0512 13.1522C61.7598 13.576 62.1179 14.1615 62.1179 14.9089C62.1179 15.7179 61.8532 16.3035 61.316 16.6656C60.7787 17.0278 59.7354 17.3128 58.1938 17.5286C56.6445 17.7443 55.2196 17.9909 53.9116 18.2528C52.6036 18.5148 51.4747 18.9309 50.5248 19.4933C49.5749 20.0558 48.8353 20.8263 48.298 21.8125C47.7608 22.7987 47.4961 24.1162 47.4961 25.7728C47.4961 27.6451 48.119 29.1706 49.3647 30.3418C50.6104 31.5129 52.5802 32.0985 55.2586 32.0985C56.8391 32.0985 58.225 31.8596 59.424 31.3742C60.623 30.8888 61.5885 30.2416 62.3125 29.4326C62.3748 30.2108 62.4994 30.9042 62.6941 31.4975H68.4244V16.9276C68.4244 15.4945 68.2531 14.2001 67.9028 13.0597C67.5524 11.9194 66.9918 10.964 66.221 10.2012L66.2055 10.1935ZM62.2035 22.7294C62.2035 23.4151 62.0556 24.0623 61.752 24.671C61.4483 25.2797 61.059 25.8113 60.5685 26.2659C60.078 26.7205 59.4941 27.0749 58.8167 27.3446C58.1393 27.6143 57.3997 27.7452 56.6133 27.7452C54.6279 27.7452 53.6313 26.89 53.6313 25.1718C53.6313 24.1702 53.9661 23.4074 54.6279 22.8758C55.2897 22.3441 56.5043 21.9049 58.2717 21.5659C59.4084 21.3502 60.2727 21.1422 60.88 20.9572C61.4795 20.7723 61.9388 20.5181 62.2503 20.2099L62.2035 22.7371V22.7294Z" fill="url(#paint2_linear_6877_123195)"/>
<path d="M76.7019 2.6582H70.6445V23.2765C70.6445 24.5247 70.8158 25.7112 71.1662 26.8361C71.5165 27.961 72.0693 28.9473 72.8479 29.7871C73.6187 30.6346 74.6075 31.3049 75.8065 31.8058C77.0056 32.3066 78.4615 32.5531 80.1666 32.5531C81.8717 32.5531 83.2187 32.2989 84.4021 31.8058C85.5856 31.3049 86.5666 30.6269 87.3374 29.7717C88.1082 28.9087 88.6765 27.9302 89.0425 26.8207C89.4084 25.7112 89.5875 24.5478 89.5875 23.3304V16.7735H83.8571V22.7679C83.8571 24.2087 83.5612 25.3105 82.9773 26.0964C82.3934 26.8746 81.4824 27.2676 80.2523 27.2676C79.0221 27.2676 78.08 26.8669 77.5272 26.0733C76.9744 25.2797 76.7019 24.1471 76.7019 22.6755V13.2062H89.5797V8.89145H76.7019V2.6582Z" fill="url(#paint3_linear_6877_123195)"/>
<path d="M89.4867 0.253906H83.3281V5.9247H89.4867V0.253906Z" fill="url(#paint4_linear_6877_123195)"/>
<path d="M11.6191 7.92048C11.0196 7.98212 10.4279 8.12851 9.84394 8.36736C9.26001 8.59851 8.69164 8.93752 8.13884 9.3767C7.58605 9.81588 7.05661 10.4246 6.55053 11.2028V8.4367H0.773438V31.4127L6.93203 25.3181V19.4932C6.93203 15.7717 8.80843 13.9149 12.569 13.9149C13.1374 13.9149 13.7057 13.9611 14.2741 14.0536V7.82031H13.4721C12.8415 7.82031 12.2264 7.85113 11.6269 7.91277L11.6191 7.92048Z" fill="url(#paint5_linear_6877_123195)"/>
<path d="M114.167 15.841C113.615 14.3385 112.828 13.0672 111.801 12.0194C110.773 10.9715 109.535 10.1625 108.087 9.58463C106.631 9.00676 104.996 8.72168 103.166 8.72168C101.336 8.72168 99.639 9.00676 98.1675 9.58463C96.696 10.1625 95.4425 10.9869 94.407 12.0425C93.3636 13.1058 92.5695 14.3848 92.0167 15.8872C91.4639 17.3897 91.1914 19.0462 91.1914 20.8569C91.1914 22.6675 91.4561 24.2778 91.9933 25.7803C92.5306 27.2827 93.3091 28.5617 94.3369 29.625C95.3646 30.6883 96.6181 31.5127 98.1052 32.106C99.5923 32.6993 101.274 32.9998 103.174 32.9998C103.548 32.9998 103.906 32.9766 104.264 32.9535L114.93 22.3978C114.977 21.897 115.008 21.3962 115.008 20.8646C115.008 19.0231 114.728 17.3511 114.183 15.8487L114.167 15.841ZM103.158 27.8837C99.3977 27.8837 97.5213 25.5414 97.5213 20.8569C97.5213 16.1723 99.3977 13.8762 103.158 13.8762C106.919 13.8762 108.795 16.2031 108.795 20.8569C108.795 25.5106 106.919 27.8837 103.158 27.8837Z" fill="url(#paint6_linear_6877_123195)"/>
<defs>
<linearGradient id="paint0_linear_6877_123195" x1="22.9234" y1="5.62243" x2="22.9234" y2="57.8239" gradientUnits="userSpaceOnUse">
<stop stop-color="white"/>
<stop offset="1" stop-color="#999999"/>
</linearGradient>
<linearGradient id="paint1_linear_6877_123195" x1="40.6284" y1="-2.86271" x2="40.6284" y2="64.8882" gradientUnits="userSpaceOnUse">
<stop stop-color="white"/>
<stop offset="1" stop-color="#999999"/>
</linearGradient>
<linearGradient id="paint2_linear_6877_123195" x1="55.1406" y1="5.62173" x2="55.1406" y2="57.8398" gradientUnits="userSpaceOnUse">
<stop stop-color="white"/>
<stop offset="1" stop-color="#999999"/>
</linearGradient>
<linearGradient id="paint3_linear_6877_123195" x1="77.5638" y1="-0.0595179" x2="77.5638" y2="64.2599" gradientUnits="userSpaceOnUse">
<stop stop-color="white"/>
<stop offset="1" stop-color="#999999"/>
</linearGradient>
<linearGradient id="paint4_linear_6877_123195" x1="85.5777" y1="-0.26162" x2="85.5777" y2="11.9392" gradientUnits="userSpaceOnUse">
<stop stop-color="white"/>
<stop offset="1" stop-color="#999999"/>
</linearGradient>
<linearGradient id="paint5_linear_6877_123195" x1="5.7048" y1="5.67555" x2="5.7048" y2="56.4348" gradientUnits="userSpaceOnUse">
<stop stop-color="white"/>
<stop offset="1" stop-color="#999999"/>
</linearGradient>
<linearGradient id="paint6_linear_6877_123195" x1="99.891" y1="6.51458" x2="99.891" y2="58.7492" gradientUnits="userSpaceOnUse">
<stop stop-color="white"/>
<stop offset="1" stop-color="#999999"/>
</linearGradient>
</defs>
</svg>
