<svg width="41" height="29" viewBox="0 0 41 29" fill="none" xmlns="http://www.w3.org/2000/svg">
<path d="M21.0391 5.52018V24.9211C21.0391 26.2463 21.8488 27.4406 23.079 27.9491C24.3169 28.4576 25.7417 28.1725 26.6838 27.2402L39.7718 14.2883C40.3947 13.6719 40.7372 12.8398 40.7372 11.9692C40.7372 11.0985 40.3869 10.2664 39.7718 9.65L30.8414 0.8125C28.5446 3.67101 25.0098 5.50477 21.0391 5.51248V5.52018Z" fill="url(#paint0_linear_6877_123192)"/>
<path d="M19.706 5.51237V24.9133C19.706 26.2385 18.8962 27.4328 17.6661 27.9413C16.4281 28.4498 15.0033 28.1647 14.0612 27.2324L0.965444 14.2805C0.350363 13.6641 0 12.832 0 11.9614C0 11.0907 0.350363 10.2586 0.965444 9.64218L9.90359 0.804688C12.2004 3.6632 15.7352 5.49696 19.706 5.50466V5.51237Z" fill="#E72276"/>
<defs>
<linearGradient id="paint0_linear_6877_123192" x1="28.2342" y1="-1.67714" x2="28.2342" y2="57.2443" gradientUnits="userSpaceOnUse">
<stop stop-color="white"/>
<stop offset="1" stop-color="#999999"/>
</linearGradient>
</defs>
</svg>
