<svg width="47" height="33" viewBox="0 0 47 33" fill="none" xmlns="http://www.w3.org/2000/svg">
<path d="M24.0371 7.52018V26.9211C24.0371 28.2463 24.8468 29.4406 26.077 29.9491C27.3149 30.4576 28.7398 30.1725 29.6818 29.2402L42.7698 16.2883C43.3927 15.6719 43.7353 14.8398 43.7353 13.9692C43.7353 13.0985 43.3849 12.2664 42.7698 11.65L33.8395 2.8125C31.5427 5.67101 28.0079 7.50477 24.0371 7.51248V7.52018Z" fill="url(#paint0_linear_1522_156)"/>
<path d="M22.706 7.51237V26.9133C22.706 28.2385 21.8962 29.4328 20.6661 29.9413C19.4281 30.4498 18.0033 30.1647 17.0612 29.2324L3.96544 16.2805C3.35036 15.6641 3 14.832 3 13.9614C3 13.0907 3.35036 12.2586 3.96544 11.6422L12.9036 2.80469C15.2004 5.6632 18.7352 7.49696 22.706 7.50466V7.51237Z" fill="#E72276"/>
<defs>
<linearGradient id="paint0_linear_1522_156" x1="31.2322" y1="0.322862" x2="31.2322" y2="59.2443" gradientUnits="userSpaceOnUse">
<stop stop-color="white"/>
<stop offset="1" stop-color="#999999"/>
</linearGradient>
</defs>
</svg>
