<svg width="16" height="17" viewBox="0 0 16 17" fill="none" xmlns="http://www.w3.org/2000/svg">
<path d="M7.99955 10.9204C7.84378 10.9208 7.69282 10.8665 7.57288 10.7671L3.57288 7.43378C3.28938 7.19814 3.25057 6.77729 3.48621 6.49378C3.72186 6.21027 4.14271 6.17147 4.42621 6.40711L7.99955 9.39378L11.5729 6.51378C11.7106 6.40193 11.8872 6.3496 12.0637 6.36837C12.2401 6.38714 12.4018 6.47546 12.5129 6.61378C12.6363 6.75235 12.6964 6.9361 12.6787 7.12082C12.661 7.30554 12.5671 7.47452 12.4195 7.58711L8.41955 10.8071C8.29616 10.8908 8.14828 10.9307 7.99955 10.9204Z" fill="#100919"/>
</svg>
