<svg width="16" height="17" viewBox="0 0 16 17" fill="none" xmlns="http://www.w3.org/2000/svg">
<path d="M8.00022 10.9195C7.84445 10.9198 7.69349 10.8655 7.57355 10.7661L3.57355 7.4328C3.29005 7.19716 3.25124 6.77631 3.48689 6.4928C3.72253 6.2093 4.14338 6.17049 4.42689 6.40614L8.00022 9.3928L11.5736 6.5128C11.7113 6.40096 11.8879 6.34862 12.0643 6.36739C12.2408 6.38616 12.4024 6.47448 12.5136 6.6128C12.637 6.75138 12.6971 6.93512 12.6793 7.11984C12.6616 7.30456 12.5677 7.47354 12.4202 7.58614L8.42022 10.8061C8.29683 10.8898 8.14895 10.9297 8.00022 10.9195Z" fill="#100919"/>
</svg>
