
<svg width="24" height="24" viewBox="0 0 24 24" fill="none" xmlns="http://www.w3.org/2000/svg">
<path d="M0 6C0 2.68629 2.68629 0 6 0H18C21.3137 0 24 2.68629 24 6V18C24 21.3137 21.3137 24 18 24H6C2.68629 24 0 21.3137 0 18V6Z" fill="#57C700" fill-opacity="0.2"/>
<path d="M10.2299 16.12C9.79786 16.12 9.37586 16.066 8.96386 15.958C8.55186 15.85 8.17586 15.688 7.83586 15.472C7.49586 15.256 7.21586 14.986 6.99586 14.662C6.77986 14.338 6.64986 13.958 6.60586 13.522H8.39986C8.45986 13.786 8.57386 14.008 8.74186 14.188C8.91386 14.368 9.13386 14.506 9.40186 14.602C9.67386 14.698 9.98386 14.746 10.3319 14.746C10.6079 14.746 10.8699 14.706 11.1179 14.626C11.3659 14.546 11.5679 14.424 11.7239 14.26C11.8799 14.096 11.9579 13.89 11.9579 13.642C11.9579 13.346 11.8499 13.124 11.6339 12.976C11.4179 12.824 11.1239 12.704 10.7519 12.616L9.12586 12.262C8.66586 12.166 8.26386 12.018 7.91986 11.818C7.57986 11.614 7.31786 11.35 7.13386 11.026C6.94986 10.698 6.85786 10.3 6.85786 9.832C6.85786 9.292 7.00586 8.826 7.30186 8.434C7.60186 8.042 8.00786 7.742 8.51986 7.534C9.03586 7.322 9.61386 7.216 10.2539 7.216C10.9779 7.216 11.5879 7.334 12.0839 7.57C12.5839 7.802 12.9659 8.118 13.2299 8.518C13.4939 8.914 13.6279 9.356 13.6319 9.844H11.8799C11.8479 9.544 11.7559 9.304 11.6039 9.124C11.4519 8.94 11.2559 8.808 11.0159 8.728C10.7799 8.644 10.5099 8.602 10.2059 8.602C9.68186 8.602 9.29986 8.708 9.05986 8.92C8.81986 9.132 8.69986 9.378 8.69986 9.658C8.69986 9.922 8.78986 10.136 8.96986 10.3C9.15386 10.46 9.44786 10.582 9.85186 10.666L11.3579 10.99C11.9179 11.098 12.3719 11.27 12.7199 11.506C13.0679 11.738 13.3219 12.02 13.4819 12.352C13.6419 12.684 13.7219 13.056 13.7219 13.468C13.7219 13.992 13.5719 14.454 13.2719 14.854C12.9759 15.25 12.5659 15.56 12.0419 15.784C11.5179 16.008 10.9139 16.12 10.2299 16.12ZM15.2747 16V7.324H17.0207V16H15.2747Z" fill="#57C700"/>
</svg>
