<svg width="92" height="62" viewBox="0 0 92 62" fill="none" xmlns="http://www.w3.org/2000/svg">
<path d="M47.4995 10.6665V54.5519C47.4995 57.5496 49.313 60.251 52.068 61.4013C54.8405 62.5516 58.0315 61.9068 60.1414 59.7979L89.453 30.5003C90.848 29.106 91.6152 27.2237 91.6152 25.2543C91.6152 23.2848 90.8305 21.4025 89.453 20.0083L69.4527 0.0175781C64.3088 6.48361 56.3924 10.6316 47.4995 10.6491V10.6665Z" fill="url(#paint0_linear_1953_16582)"/>
<path d="M44.5179 10.6489V54.5343C44.5179 57.532 42.7044 60.2335 39.9494 61.3838C37.1769 62.534 33.9859 61.8892 31.876 59.7803L2.54696 30.4827C1.16943 29.0884 0.384766 27.2061 0.384766 25.2367C0.384766 23.2673 1.16943 21.385 2.54696 19.9907L22.5647 0C27.7086 6.46603 35.625 10.6141 44.5179 10.6315V10.6489Z" fill="#E72276"/>
<defs>
<linearGradient id="paint0_linear_1953_16582" x1="63.6136" y1="-5.61406" x2="63.6136" y2="127.668" gradientUnits="userSpaceOnUse">
<stop stop-color="white"/>
<stop offset="1" stop-color="#999999"/>
</linearGradient>
</defs>
</svg>
