<svg width="22" height="20" viewBox="0 0 22 20" fill="none" xmlns="http://www.w3.org/2000/svg">
<path d="M11.2201 17.85C11.0401 18.03 10.7201 18.06 10.5101 17.85C10.3301 17.67 10.3001 17.35 10.5101 17.14L13.9001 13.75L12.4901 12.34L9.10009 15.73C8.91009 15.93 8.59009 15.92 8.39009 15.73C8.18009 15.52 8.21009 15.2 8.39009 15.02L11.7801 11.63L10.3701 10.22L6.98009 13.61C6.80009 13.79 6.48009 13.82 6.27009 13.61C6.08009 13.42 6.08009 13.1 6.27009 12.9L9.66009 9.51L8.24009 8.1L4.85009 11.49C4.67009 11.67 4.35009 11.7 4.14009 11.49C3.95009 11.29 3.95009 10.98 4.14009 10.78L8.52009 6.4L10.3901 8.26C11.3401 9.21 12.9801 9.2 13.9301 8.26C14.9101 7.28 14.9101 5.7 13.9301 4.72L12.0701 2.86L12.3501 2.58C13.1301 1.8 14.4001 1.8 15.1801 2.58L19.4201 6.82C20.2001 7.6 20.2001 8.87 19.4201 9.65L11.2201 17.85ZM20.8301 11.07C22.3901 9.51 22.3901 6.98 20.8301 5.41L16.5901 1.17C15.0301 -0.39 12.5001 -0.39 10.9301 1.17L10.6501 1.45L10.3701 1.17C8.81009 -0.39 6.28009 -0.39 4.71009 1.17L1.17009 4.71C-0.249908 6.13 -0.379908 8.34 0.770092 9.9L2.22009 8.45C1.83009 7.7 1.96009 6.75 2.59009 6.12L6.13009 2.58C6.91009 1.8 8.18009 1.8 8.96009 2.58L12.5201 6.14C12.7001 6.32 12.7301 6.64 12.5201 6.85C12.3101 7.06 11.9901 7.03 11.8101 6.85L8.52009 3.57L2.72009 9.36C1.74009 10.33 1.74009 11.92 2.72009 12.9C3.11009 13.29 3.61009 13.53 4.14009 13.6C4.21009 14.12 4.44009 14.62 4.84009 15.02C5.24009 15.42 5.74009 15.65 6.26009 15.72C6.33009 16.24 6.56009 16.74 6.96009 17.14C7.36009 17.54 7.86009 17.77 8.38009 17.84C8.45009 18.38 8.69009 18.87 9.08009 19.26C9.55009 19.73 10.1801 19.99 10.8501 19.99C11.5201 19.99 12.1501 19.73 12.6201 19.26L20.8301 11.07Z" fill="#160A2A"/>
</svg>
